<?xml version="1.0" encoding="UTF-8"?>
<svg width="43px" height="67px" viewBox="0 0 43 67" version="1.1" xmlns="http://www.w3.org/2000/svg" xmlns:xlink="http://www.w3.org/1999/xlink">
    <!-- Generator: Sketch 42 (36781) - http://www.bohemiancoding.com/sketch -->
    <title>Slice</title>
    <desc>Created with Sketch.</desc>
    <defs></defs>
    <g id="Page-1" stroke="none" stroke-width="1" fill="none" fill-rule="evenodd">
        <g id="Group" transform="translate(79.800000, 33.500000) scale(-1, 1) rotate(-180.000000) translate(-79.800000, -33.500000) translate(-0.200000, 0.000000)" fill-rule="nonzero" fill="#3C8EFF">
            <path d="M20.5949555,66.3249031 C19.4272831,66.0982251 18.5702758,65.6664575 17.7668316,64.8946729 C17.3061902,64.446714 16.9901687,64.0365348 16.7169977,63.5238107 C15.399349,61.0627353 16.1813681,58.0133765 18.5274255,56.4428218 L18.9130787,56.1837612 L18.9130787,54.0411144 L18.9130787,51.8984676 L18.500644,51.860688 C15.8171401,51.6178187 12.8390399,50.9377847 10.5840395,50.0418669 C9.79666413,49.7288353 8.25405108,48.9462565 7.56844528,48.5144889 C3.69048747,46.0534135 1.1462472,42.1027398 0.326734014,37.2831338 C0.117838497,36.0364048 0.0535629531,35.2808114 0.0214251813,33.7210509 C-0.0107125906,31.9723921 0.0374940672,31.0440917 0.25174588,29.6624353 C0.717743572,26.5914881 1.92826631,23.8119841 3.82439485,21.4426593 C6.37399142,18.2475789 10.1073293,16.2344624 15.3511424,15.2144114 C16.0903111,15.0740869 17.7454064,14.8312177 18.4577936,14.7664525 L18.8862973,14.7232758 L18.8970099,12.4834812 L18.9077225,10.2436867 L18.5220692,10.0008174 C17.8043256,9.55285854 17.0812258,8.77027973 16.668791,7.99309802 C15.5332564,5.8720396 15.9403349,3.25984551 17.6650619,1.5759518 C18.3935181,0.85813814 19.1862498,0.415576332 20.1825207,0.167309952 C20.8520577,-0.00539709522 22.0090174,-0.00539709522 22.6785544,0.167309952 C24.5371888,0.636857236 25.972676,1.96454266 26.5672248,3.76717246 C27.0225099,5.14882884 26.8993151,6.64922131 26.2244219,7.93372997 C25.8226997,8.70011749 25.1424502,9.47190211 24.4729133,9.91986101 L24.1622482,10.1249506 L24.1622482,12.4295103 L24.1622482,14.7340699 L24.6336021,14.7718496 C25.3352768,14.8258206 27.2099802,15.1064695 28.1098378,15.2899708 C32.4645059,16.1966828 35.8068342,17.8481939 38.2493048,20.3092693 C40.9863717,23.067185 42.587904,26.7156213 42.9896262,31.1034597 C43.3056476,34.6169687 42.9574884,37.7418869 41.934436,40.5105967 C41.4041628,41.9408269 40.3168348,43.8567957 39.3366328,45.0819364 C38.7902907,45.7673675 37.708319,46.8683749 37.0709199,47.386496 C35.8550408,48.3795615 34.044613,49.426598 32.4912874,50.0418669 C30.2952063,50.9161963 27.5527831,51.5530535 24.794291,51.8337025 L24.1622482,51.8984676 L24.1622482,54.073497 L24.1622482,56.2485264 L24.4996948,56.4752044 C25.1853006,56.9447516 25.8601938,57.6949479 26.2512033,58.4289528 C27.9009423,61.5052971 26.2190656,65.3372347 22.8285306,66.2223583 C22.1911315,66.3896683 21.1680791,66.432845 20.5949555,66.3249031 Z M22.2286255,63.3834862 C22.4053833,63.3295153 22.6571292,63.2215734 22.780324,63.1460141 C23.1284832,62.9409244 23.5569868,62.4551859 23.7498134,62.0450066 C23.9105023,61.6941954 23.9212149,61.6456216 23.9212149,61.0303527 C23.9212149,60.4150839 23.9105023,60.36651 23.7498134,60.0156988 C23.5569868,59.6055196 23.1284832,59.119781 22.780324,58.9146914 C21.9929486,58.4505412 20.8627702,58.4667325 20.1343141,58.9524711 C19.7647297,59.2007375 19.4058579,59.6163138 19.2183876,60.0210959 C19.0576987,60.36651 19.0469861,60.4150839 19.0469861,61.0303527 C19.0469861,61.6456216 19.0576987,61.6941954 19.2183876,62.0450066 C19.4112142,62.4551859 19.8397178,62.9409244 20.187877,63.1460141 C20.7610006,63.4860311 21.5912264,63.5831788 22.2286255,63.3834862 Z M14.0817004,45.1952754 C16.5134584,44.7419194 18.1096345,42.9986576 18.6399077,40.2137565 C18.8595158,39.0587781 18.880941,38.4758918 18.880941,33.4242107 C18.880941,28.3725296 18.8595158,27.7896433 18.6399077,26.6346649 C18.1578411,24.1088243 16.8294799,22.4681074 14.7512373,21.820456 C14.1459759,21.6315576 13.4496575,21.5452041 12.5283747,21.5452041 C11.6820801,21.5506012 11.6606549,21.5506012 11.3232083,21.7125141 C9.56634343,22.5382696 7.84697263,24.6485339 6.94711502,27.0772267 C5.68838562,30.4719996 5.62946637,35.3293853 6.80785134,38.9292478 C7.26849274,40.3486839 7.79876598,41.4011174 8.60756657,42.4967277 C9.28245978,43.4142339 10.4019255,44.4774617 11.3553461,45.1143189 C11.5642416,45.2546434 11.6552986,45.2762318 12.1052274,45.2978202 C12.7104888,45.3302027 13.6049901,45.2816289 14.0817004,45.1952754 Z M31.3021898,45.1898783 C31.7789001,45.1089218 31.9877956,44.9901857 32.8073088,44.3155488 C34.6123803,42.8205535 35.9139601,40.7048921 36.5620718,38.2114341 C36.9316562,36.7812039 37.0602073,35.7719471 37.1084139,34.0448766 C37.2262524,29.2576532 36.0157297,25.5714371 33.482202,23.0024198 C32.7269644,22.2360323 32.21276,21.8420443 31.8646008,21.766485 C30.4184011,21.4534535 28.6883177,21.4750419 27.5742083,21.820456 C26.1119396,22.273812 24.9335547,23.3046572 24.2961555,24.6917106 L24.1622482,24.9777567 L24.1622482,33.4242107 L24.1622482,41.8706647 L24.2961555,42.1567108 C24.9335547,43.5383671 26.1119396,44.5746094 27.5581394,45.0225683 C28.5436977,45.3302027 30.0434604,45.3949679 31.3021898,45.1898783 Z M22.1750626,7.84737645 C22.3518203,7.7934055 22.6035662,7.68546359 22.726761,7.60990426 C23.0749202,7.40481464 23.5034238,6.91907607 23.6962505,6.50889683 C23.8569393,6.15808564 23.8676519,6.10951179 23.8676519,5.49424293 C23.8676519,4.87897408 23.8569393,4.83040022 23.6962505,4.47958903 C23.5034238,4.06940979 23.0749202,3.58367123 22.726761,3.37858161 C21.9661671,2.92522561 20.894908,2.92522561 20.1343141,3.37858161 C19.7861549,3.58367123 19.3576513,4.06940979 19.1648246,4.47958903 C19.0041358,4.83040022 18.9934232,4.87897408 18.9934232,5.49424293 C18.9934232,6.10951179 19.0041358,6.15808564 19.1648246,6.50889683 C19.3576513,6.91907607 19.7861549,7.40481464 20.1343141,7.60990426 C20.7074377,7.94992126 21.5376635,8.04706897 22.1750626,7.84737645 Z" id="Shape"></path>
        </g>
        <g id="Group" transform="translate(402.500000, 615.300000) scale(-1, 1) rotate(-180.000000) translate(-402.500000, -615.300000) translate(0.000000, 0.300000)"></g>
    </g>
</svg>