<?xml version="1.0" encoding="UTF-8" ?>
<!DOCTYPE svg PUBLIC "-//W3C//DTD SVG 1.1//EN" "http://www.w3.org/Graphics/SVG/1.1/DTD/svg11.dtd">
<svg width="125pt" height="116pt" viewBox="0 0 125 116" version="1.1" xmlns="http://www.w3.org/2000/svg">
<g id="#3c8effff">
<path fill="#3c8eff" opacity="1.00" d=" M 8.57 0.00 L 115.66 0.00 C 120.48 0.40 124.52 4.29 125.00 9.12 L 125.00 25.30 C 124.20 30.04 120.05 34.08 115.11 33.96 C 99.38 34.07 83.64 33.97 67.90 33.99 C 65.78 37.47 63.66 40.96 62.00 44.69 C 61.24 43.21 60.57 41.68 59.77 40.22 L 59.35 39.66 C 59.18 39.34 58.83 38.69 58.66 38.36 L 58.67 38.51 C 57.82 37.01 56.98 35.50 56.15 33.99 C 40.73 33.98 25.31 34.06 9.90 33.96 C 4.78 34.08 0.41 29.73 0.00 24.73 L 0.00 8.72 C 0.71 4.30 4.23 0.89 8.57 0.00 M 15.09 7.49 C 12.08 9.02 9.68 12.41 11.03 15.87 C 11.49 18.53 14.17 19.46 16.33 20.36 C 16.41 22.58 16.52 24.81 16.69 27.03 C 19.76 26.13 18.82 22.76 19.11 20.35 C 21.21 19.21 23.92 18.29 24.64 15.73 C 25.91 12.26 24.32 7.80 20.31 7.31 C 18.67 8.28 16.81 7.82 15.09 7.49 M 69.21 7.23 C 64.59 7.92 60.83 12.35 61.08 17.06 C 60.83 22.37 65.74 27.18 71.04 26.89 C 76.34 27.15 81.12 22.26 80.86 16.99 C 81.21 10.97 75.06 5.92 69.21 7.23 M 89.83 13.10 C 91.12 13.70 92.40 14.29 93.70 14.88 C 92.45 18.43 92.48 22.19 92.39 25.90 C 93.07 25.88 94.45 25.85 95.14 25.84 C 94.70 22.28 94.13 18.56 95.43 15.11 C 97.93 15.93 100.40 16.94 103.02 17.36 C 107.54 16.35 112.03 15.04 116.27 13.16 C 111.85 11.93 107.55 10.14 103.02 9.33 C 98.52 10.15 94.26 11.96 89.83 13.10 M 34.22 15.02 C 35.27 19.48 39.68 22.06 42.74 25.13 C 45.12 22.68 47.76 20.46 49.88 17.78 C 51.57 15.64 51.36 11.66 48.52 10.59 C 45.94 9.24 43.47 12.64 40.93 11.03 C 37.99 9.07 33.52 11.27 34.22 15.02 M 96.24 17.04 C 96.01 17.88 95.55 19.57 95.32 20.42 C 99.30 24.33 105.71 23.69 110.33 21.31 C 110.29 20.25 110.21 18.12 110.17 17.05 C 107.80 17.64 105.47 18.48 103.02 18.74 C 100.69 18.50 98.48 17.67 96.24 17.04 Z" />
<path fill="#3c8eff" opacity="1.00" d=" M 13.54 12.94 C 13.50 10.89 15.21 8.19 17.48 9.54 C 16.01 12.27 16.46 15.41 16.24 18.37 C 14.92 16.83 13.14 15.20 13.54 12.94 Z" />
<path fill="#3c8eff" opacity="1.00" d=" M 19.31 8.71 C 23.70 10.56 23.32 16.98 19.12 18.85 C 18.93 15.47 18.95 12.08 19.31 8.71 Z" />
<path fill="#3c8eff" opacity="1.00" d=" M 69.26 9.42 C 70.84 9.36 72.42 9.26 74.01 9.30 C 75.62 9.11 75.30 11.43 75.81 12.36 C 76.80 12.78 77.80 13.19 78.81 13.59 C 77.85 13.54 75.94 13.43 74.98 13.38 C 74.45 14.62 73.92 15.87 73.38 17.11 C 74.59 17.54 75.80 17.98 77.01 18.43 C 76.41 20.73 76.77 24.29 73.86 25.06 C 71.22 26.17 68.46 25.04 65.97 24.11 C 67.52 22.25 69.14 20.45 70.77 18.66 C 69.18 17.23 67.82 14.82 65.34 15.18 C 64.32 18.00 66.06 21.04 65.77 23.97 C 62.93 21.34 62.06 17.54 62.70 13.81 C 64.95 12.57 67.33 11.59 69.78 10.80 C 69.65 10.46 69.39 9.76 69.26 9.42 Z" />
</g>
<g id="#ffffffff">
<path fill="#ffffff" opacity="1.00" d=" M 15.09 7.49 C 16.81 7.82 18.67 8.28 20.31 7.31 C 24.32 7.80 25.91 12.26 24.64 15.73 C 23.92 18.29 21.21 19.21 19.11 20.35 C 18.82 22.76 19.76 26.13 16.69 27.03 C 16.52 24.81 16.41 22.58 16.33 20.36 C 14.17 19.46 11.49 18.53 11.03 15.87 C 9.68 12.41 12.08 9.02 15.09 7.49 M 13.54 12.94 C 13.14 15.20 14.92 16.83 16.24 18.37 C 16.46 15.41 16.01 12.27 17.48 9.54 C 15.21 8.19 13.50 10.89 13.54 12.94 M 19.31 8.71 C 18.95 12.08 18.93 15.47 19.12 18.85 C 23.32 16.98 23.70 10.56 19.31 8.71 Z" />
<path fill="#ffffff" opacity="1.00" d=" M 69.21 7.23 C 75.06 5.92 81.21 10.97 80.86 16.99 C 81.12 22.26 76.34 27.15 71.04 26.89 C 65.74 27.18 60.83 22.37 61.08 17.06 C 60.83 12.35 64.59 7.92 69.21 7.23 M 69.26 9.42 C 69.39 9.76 69.65 10.46 69.78 10.80 C 67.33 11.59 64.95 12.57 62.70 13.81 C 62.06 17.54 62.93 21.34 65.77 23.97 C 66.06 21.04 64.32 18.00 65.34 15.18 C 67.82 14.82 69.18 17.23 70.77 18.66 C 69.14 20.45 67.52 22.25 65.97 24.11 C 68.46 25.04 71.22 26.17 73.86 25.06 C 76.77 24.29 76.41 20.73 77.01 18.43 C 75.80 17.98 74.59 17.54 73.38 17.11 C 73.92 15.87 74.45 14.62 74.98 13.38 C 75.94 13.43 77.85 13.54 78.81 13.59 C 77.80 13.19 76.80 12.78 75.81 12.36 C 75.30 11.43 75.62 9.11 74.01 9.30 C 72.42 9.26 70.84 9.36 69.26 9.42 Z" />
<path fill="#ffffff" opacity="1.00" d=" M 89.83 13.10 C 94.26 11.96 98.52 10.15 103.02 9.33 C 107.55 10.14 111.85 11.93 116.27 13.16 C 112.03 15.04 107.54 16.35 103.02 17.36 C 100.40 16.94 97.93 15.93 95.43 15.11 C 94.13 18.56 94.70 22.28 95.14 25.84 C 94.45 25.85 93.07 25.88 92.39 25.90 C 92.48 22.19 92.45 18.43 93.70 14.88 C 92.40 14.29 91.12 13.70 89.83 13.10 Z" />
<path fill="#ffffff" opacity="1.00" d=" M 34.22 15.02 C 33.52 11.27 37.99 9.07 40.93 11.03 C 43.47 12.64 45.94 9.24 48.52 10.59 C 51.36 11.66 51.57 15.64 49.88 17.78 C 47.76 20.46 45.12 22.68 42.74 25.13 C 39.68 22.06 35.27 19.48 34.22 15.02 Z" />
<path fill="#ffffff" opacity="1.00" d=" M 96.24 17.04 C 98.48 17.67 100.69 18.50 103.02 18.74 C 105.47 18.48 107.80 17.64 110.17 17.05 C 110.21 18.12 110.29 20.25 110.33 21.31 C 105.71 23.69 99.30 24.33 95.32 20.42 C 95.55 19.57 96.01 17.88 96.24 17.04 Z" />
</g>
<g id="#ecc82cff">
<path fill="#ecc82c" opacity="1.00" d=" M 38.36 50.58 C 43.58 48.67 49.72 52.55 50.38 58.02 C 51.38 63.10 47.48 68.87 42.08 68.84 C 38.14 69.34 34.13 67.03 32.78 63.26 C 30.46 58.45 33.41 52.28 38.36 50.58 Z" />
<path fill="#ecc82c" opacity="1.00" d=" M 27.52 83.59 C 27.14 78.60 26.87 72.28 31.06 68.71 C 33.49 69.45 35.60 71.00 38.05 71.66 C 40.69 72.21 43.40 71.82 46.05 71.59 C 45.73 75.52 46.40 79.44 48.59 82.77 C 44.82 83.14 41.62 85.18 38.93 87.72 C 34.99 87.71 29.08 88.28 27.52 83.59 Z" />
</g>
<g id="#333c49ff">
<path fill="#333c49" opacity="1.00" d=" M 80.34 50.48 C 85.90 48.63 92.11 53.24 92.25 59.00 C 92.74 64.12 88.29 69.34 82.97 68.85 C 77.28 69.33 72.70 63.33 73.92 57.93 C 74.36 54.45 77.08 51.57 80.34 50.48 Z" />
<path fill="#333c49" opacity="1.00" d=" M 78.25 71.55 C 83.52 72.76 88.76 71.36 93.22 68.47 C 97.33 72.42 97.21 78.63 96.65 83.88 C 94.92 88.35 89.13 87.65 85.26 87.70 C 82.68 85.08 79.40 83.34 75.80 82.63 C 77.89 79.31 78.46 75.41 78.25 71.55 Z" />
</g>
<g id="#4eaaffff">
<path fill="#4eaaff" opacity="1.00" d=" M 58.23 60.18 C 63.05 58.86 68.78 59.99 72.14 63.85 C 77.30 68.97 77.35 78.12 72.27 83.31 C 67.00 89.38 56.22 89.04 51.39 82.58 C 45.15 75.41 48.79 62.39 58.23 60.18 Z" />
<path fill="#4eaaff" opacity="1.00" d=" M 38.67 93.43 C 40.00 90.05 42.32 86.52 46.14 85.79 C 50.66 84.12 53.73 89.16 57.93 89.92 C 64.17 92.06 70.18 88.61 75.16 85.19 C 77.84 85.73 80.84 86.19 82.68 88.43 C 87.17 93.78 87.80 101.18 87.43 107.89 C 87.40 112.26 83.18 115.75 78.97 115.76 C 67.98 115.81 56.99 115.77 46.01 115.78 C 41.86 116.08 37.78 113.06 36.89 109.00 C 36.48 103.77 36.64 98.34 38.67 93.43 Z" />
</g>
</svg>
